<mxfile host="app.diagrams.net" modified="2022-03-06T19:27:02.253Z" agent="5.0 (Macintosh; Intel Mac OS X 10_15_7) AppleWebKit/605.1.15 (KHTML, like Gecko) Version/14.1.2 Safari/605.1.15" etag="PcQoHT2n9JUjOSFw4AOG" version="16.6.3" type="github">
  <diagram id="Rl67zdqpIDWaK_yTW91_" name="Page-1">
    <mxGraphModel dx="3470" dy="2593" grid="1" gridSize="10" guides="1" tooltips="1" connect="1" arrows="1" fold="1" page="1" pageScale="1" pageWidth="850" pageHeight="1100" math="0" shadow="0">
      <root>
        <mxCell id="0" />
        <mxCell id="1" parent="0" />
        <mxCell id="5xeOCGfkbPJfZr5TMqTU-2" value="User" style="rounded=0;whiteSpace=wrap;html=1;" parent="1" vertex="1">
          <mxGeometry x="340" y="270" width="120" height="60" as="geometry" />
        </mxCell>
        <mxCell id="5xeOCGfkbPJfZr5TMqTU-3" value="fname" style="ellipse;whiteSpace=wrap;html=1;rotation=-10;" parent="1" vertex="1">
          <mxGeometry x="210" width="120" height="80" as="geometry" />
        </mxCell>
        <mxCell id="5xeOCGfkbPJfZr5TMqTU-4" value="mname" style="ellipse;whiteSpace=wrap;html=1;" parent="1" vertex="1">
          <mxGeometry x="340" y="-10" width="120" height="80" as="geometry" />
        </mxCell>
        <mxCell id="5xeOCGfkbPJfZr5TMqTU-5" value="lname" style="ellipse;whiteSpace=wrap;html=1;rotation=10;" parent="1" vertex="1">
          <mxGeometry x="475" y="10" width="120" height="80" as="geometry" />
        </mxCell>
        <mxCell id="5xeOCGfkbPJfZr5TMqTU-6" value="Name" style="ellipse;whiteSpace=wrap;html=1;" parent="1" vertex="1">
          <mxGeometry x="340" y="150" width="120" height="80" as="geometry" />
        </mxCell>
        <mxCell id="5xeOCGfkbPJfZr5TMqTU-7" value="&lt;u&gt;ssn&lt;/u&gt;" style="ellipse;whiteSpace=wrap;html=1;rotation=0;" parent="1" vertex="1">
          <mxGeometry x="501.56" y="150" width="106.88" height="78.62" as="geometry" />
        </mxCell>
        <mxCell id="5xeOCGfkbPJfZr5TMqTU-8" value="" style="endArrow=none;html=1;rounded=0;entryX=0.5;entryY=0;entryDx=0;entryDy=0;exitX=0.5;exitY=1;exitDx=0;exitDy=0;" parent="1" source="5xeOCGfkbPJfZr5TMqTU-4" target="5xeOCGfkbPJfZr5TMqTU-6" edge="1">
          <mxGeometry width="50" height="50" relative="1" as="geometry">
            <mxPoint x="350" y="280" as="sourcePoint" />
            <mxPoint x="400" y="230" as="targetPoint" />
          </mxGeometry>
        </mxCell>
        <mxCell id="5xeOCGfkbPJfZr5TMqTU-9" value="" style="endArrow=none;html=1;rounded=0;entryX=1;entryY=0;entryDx=0;entryDy=0;exitX=0.5;exitY=1;exitDx=0;exitDy=0;" parent="1" source="5xeOCGfkbPJfZr5TMqTU-5" target="5xeOCGfkbPJfZr5TMqTU-6" edge="1">
          <mxGeometry width="50" height="50" relative="1" as="geometry">
            <mxPoint x="350" y="280" as="sourcePoint" />
            <mxPoint x="400" y="230" as="targetPoint" />
          </mxGeometry>
        </mxCell>
        <mxCell id="5xeOCGfkbPJfZr5TMqTU-10" value="" style="endArrow=none;html=1;rounded=0;entryX=0;entryY=0;entryDx=0;entryDy=0;exitX=1;exitY=1;exitDx=0;exitDy=0;" parent="1" source="5xeOCGfkbPJfZr5TMqTU-3" target="5xeOCGfkbPJfZr5TMqTU-6" edge="1">
          <mxGeometry width="50" height="50" relative="1" as="geometry">
            <mxPoint x="350" y="280" as="sourcePoint" />
            <mxPoint x="400" y="230" as="targetPoint" />
          </mxGeometry>
        </mxCell>
        <mxCell id="5xeOCGfkbPJfZr5TMqTU-11" value="" style="endArrow=none;html=1;rounded=0;entryX=1;entryY=0.5;entryDx=0;entryDy=0;exitX=0;exitY=1;exitDx=0;exitDy=0;" parent="1" source="5xeOCGfkbPJfZr5TMqTU-7" target="5xeOCGfkbPJfZr5TMqTU-2" edge="1">
          <mxGeometry width="50" height="50" relative="1" as="geometry">
            <mxPoint x="350" y="280" as="sourcePoint" />
            <mxPoint x="400" y="230" as="targetPoint" />
          </mxGeometry>
        </mxCell>
        <mxCell id="5xeOCGfkbPJfZr5TMqTU-12" value="" style="endArrow=none;html=1;rounded=0;exitX=0.5;exitY=0;exitDx=0;exitDy=0;entryX=0.5;entryY=1;entryDx=0;entryDy=0;" parent="1" source="5xeOCGfkbPJfZr5TMqTU-2" target="5xeOCGfkbPJfZr5TMqTU-6" edge="1">
          <mxGeometry width="50" height="50" relative="1" as="geometry">
            <mxPoint x="350" y="280" as="sourcePoint" />
            <mxPoint x="400" y="230" as="targetPoint" />
          </mxGeometry>
        </mxCell>
        <mxCell id="5xeOCGfkbPJfZr5TMqTU-13" value="d" style="ellipse;whiteSpace=wrap;html=1;aspect=fixed;" parent="1" vertex="1">
          <mxGeometry x="385" y="380" width="30" height="30" as="geometry" />
        </mxCell>
        <mxCell id="5xeOCGfkbPJfZr5TMqTU-14" value="" style="endArrow=none;html=1;rounded=0;entryX=0.5;entryY=1;entryDx=0;entryDy=0;exitX=0.5;exitY=0;exitDx=0;exitDy=0;" parent="1" source="5xeOCGfkbPJfZr5TMqTU-13" target="5xeOCGfkbPJfZr5TMqTU-2" edge="1">
          <mxGeometry width="50" height="50" relative="1" as="geometry">
            <mxPoint x="150" y="620" as="sourcePoint" />
            <mxPoint x="350" y="440" as="targetPoint" />
          </mxGeometry>
        </mxCell>
        <mxCell id="5xeOCGfkbPJfZr5TMqTU-15" value="" style="endArrow=none;html=1;rounded=0;entryX=0;entryY=0.5;entryDx=0;entryDy=0;startArrow=none;exitX=1;exitY=0.5;exitDx=0;exitDy=0;exitPerimeter=0;" parent="1" source="5xeOCGfkbPJfZr5TMqTU-16" target="5xeOCGfkbPJfZr5TMqTU-13" edge="1">
          <mxGeometry width="50" height="50" relative="1" as="geometry">
            <mxPoint x="295" y="440" as="sourcePoint" />
            <mxPoint x="440" y="420" as="targetPoint" />
          </mxGeometry>
        </mxCell>
        <mxCell id="5xeOCGfkbPJfZr5TMqTU-16" value="" style="shape=requiredInterface;html=1;verticalLabelPosition=bottom;sketch=0;rotation=-210;" parent="1" vertex="1">
          <mxGeometry x="290.04" y="430.12" width="10" height="18.97" as="geometry" />
        </mxCell>
        <mxCell id="5xeOCGfkbPJfZr5TMqTU-17" value="" style="endArrow=none;html=1;rounded=0;exitX=0.5;exitY=0;exitDx=0;exitDy=0;" parent="1" source="5xeOCGfkbPJfZr5TMqTU-18" target="5xeOCGfkbPJfZr5TMqTU-16" edge="1">
          <mxGeometry width="50" height="50" relative="1" as="geometry">
            <mxPoint x="220" y="480" as="sourcePoint" />
            <mxPoint x="290" y="450" as="targetPoint" />
            <Array as="points" />
          </mxGeometry>
        </mxCell>
        <mxCell id="5xeOCGfkbPJfZr5TMqTU-18" value="Admin" style="rounded=0;whiteSpace=wrap;html=1;" parent="1" vertex="1">
          <mxGeometry x="140" y="490" width="120" height="60" as="geometry" />
        </mxCell>
        <mxCell id="5xeOCGfkbPJfZr5TMqTU-21" value="" style="endArrow=none;html=1;rounded=0;entryX=1;entryY=0.5;entryDx=0;entryDy=0;exitX=1;exitY=0.5;exitDx=0;exitDy=0;exitPerimeter=0;" parent="1" source="5xeOCGfkbPJfZr5TMqTU-22" target="5xeOCGfkbPJfZr5TMqTU-13" edge="1">
          <mxGeometry width="50" height="50" relative="1" as="geometry">
            <mxPoint x="510" y="440" as="sourcePoint" />
            <mxPoint x="420" y="400" as="targetPoint" />
          </mxGeometry>
        </mxCell>
        <mxCell id="5xeOCGfkbPJfZr5TMqTU-22" value="" style="shape=requiredInterface;html=1;verticalLabelPosition=bottom;sketch=0;rotation=30;" parent="1" vertex="1">
          <mxGeometry x="510" y="430.12" width="10" height="20" as="geometry" />
        </mxCell>
        <mxCell id="5xeOCGfkbPJfZr5TMqTU-23" value="" style="endArrow=none;html=1;rounded=0;entryX=1;entryY=0.5;entryDx=0;entryDy=0;entryPerimeter=0;" parent="1" target="5xeOCGfkbPJfZr5TMqTU-22" edge="1">
          <mxGeometry width="50" height="50" relative="1" as="geometry">
            <mxPoint x="630" y="490" as="sourcePoint" />
            <mxPoint x="520" y="440" as="targetPoint" />
          </mxGeometry>
        </mxCell>
        <mxCell id="5xeOCGfkbPJfZr5TMqTU-24" value="Staff" style="rounded=0;whiteSpace=wrap;html=1;" parent="1" vertex="1">
          <mxGeometry x="570" y="490" width="120" height="60" as="geometry" />
        </mxCell>
        <mxCell id="5xeOCGfkbPJfZr5TMqTU-27" value="" style="endArrow=none;html=1;rounded=0;entryX=0.5;entryY=1;entryDx=0;entryDy=0;exitX=0.75;exitY=0;exitDx=0;exitDy=0;" parent="1" source="5xeOCGfkbPJfZr5TMqTU-24" target="IqsqwptslfBjgLYsb2Rc-1" edge="1">
          <mxGeometry width="50" height="50" relative="1" as="geometry">
            <mxPoint x="610" y="530" as="sourcePoint" />
            <mxPoint x="650" y="390" as="targetPoint" />
          </mxGeometry>
        </mxCell>
        <mxCell id="5xeOCGfkbPJfZr5TMqTU-29" value="Add details&amp;nbsp;" style="rhombus;whiteSpace=wrap;html=1;" parent="1" vertex="1">
          <mxGeometry x="940" y="260" width="80" height="80" as="geometry" />
        </mxCell>
        <mxCell id="5xeOCGfkbPJfZr5TMqTU-30" value="" style="endArrow=none;html=1;rounded=0;entryX=0;entryY=0.5;entryDx=0;entryDy=0;exitX=1;exitY=0.5;exitDx=0;exitDy=0;" parent="1" source="5xeOCGfkbPJfZr5TMqTU-24" target="5xeOCGfkbPJfZr5TMqTU-29" edge="1">
          <mxGeometry width="50" height="50" relative="1" as="geometry">
            <mxPoint x="750" y="510" as="sourcePoint" />
            <mxPoint x="800" y="460" as="targetPoint" />
            <Array as="points">
              <mxPoint x="830" y="520" />
              <mxPoint x="830" y="300" />
            </Array>
          </mxGeometry>
        </mxCell>
        <mxCell id="5xeOCGfkbPJfZr5TMqTU-31" value="Airport" style="rounded=0;whiteSpace=wrap;html=1;" parent="1" vertex="1">
          <mxGeometry x="1090" y="480" width="120" height="60" as="geometry" />
        </mxCell>
        <mxCell id="5xeOCGfkbPJfZr5TMqTU-32" value="" style="endArrow=none;html=1;rounded=0;entryX=1;entryY=0.5;entryDx=0;entryDy=0;exitX=0.5;exitY=0;exitDx=0;exitDy=0;" parent="1" source="5xeOCGfkbPJfZr5TMqTU-31" target="5xeOCGfkbPJfZr5TMqTU-29" edge="1">
          <mxGeometry width="50" height="50" relative="1" as="geometry">
            <mxPoint x="900" y="520" as="sourcePoint" />
            <mxPoint x="950" y="470" as="targetPoint" />
            <Array as="points">
              <mxPoint x="1150" y="300" />
            </Array>
          </mxGeometry>
        </mxCell>
        <mxCell id="5xeOCGfkbPJfZr5TMqTU-33" value="Address" style="ellipse;whiteSpace=wrap;html=1;rotation=-15;" parent="1" vertex="1">
          <mxGeometry x="1040" y="350.12" width="90" height="59.88" as="geometry" />
        </mxCell>
        <mxCell id="5xeOCGfkbPJfZr5TMqTU-34" value="Airport name" style="ellipse;whiteSpace=wrap;html=1;rotation=15;" parent="1" vertex="1">
          <mxGeometry x="1185" y="365.06" width="90" height="59.88" as="geometry" />
        </mxCell>
        <mxCell id="5xeOCGfkbPJfZr5TMqTU-35" value="" style="endArrow=none;html=1;rounded=0;entryX=0.5;entryY=1;entryDx=0;entryDy=0;exitX=0.25;exitY=0;exitDx=0;exitDy=0;" parent="1" source="5xeOCGfkbPJfZr5TMqTU-31" target="5xeOCGfkbPJfZr5TMqTU-33" edge="1">
          <mxGeometry width="50" height="50" relative="1" as="geometry">
            <mxPoint x="1050" y="480" as="sourcePoint" />
            <mxPoint x="1070" y="440" as="targetPoint" />
          </mxGeometry>
        </mxCell>
        <mxCell id="5xeOCGfkbPJfZr5TMqTU-36" value="" style="endArrow=none;html=1;rounded=0;entryX=0.5;entryY=1;entryDx=0;entryDy=0;" parent="1" target="5xeOCGfkbPJfZr5TMqTU-34" edge="1">
          <mxGeometry width="50" height="50" relative="1" as="geometry">
            <mxPoint x="1180" y="480" as="sourcePoint" />
            <mxPoint x="1170" y="470" as="targetPoint" />
          </mxGeometry>
        </mxCell>
        <mxCell id="5xeOCGfkbPJfZr5TMqTU-37" value="manage traffic" style="rhombus;whiteSpace=wrap;html=1;" parent="1" vertex="1">
          <mxGeometry x="1100" y="650" width="100" height="90" as="geometry" />
        </mxCell>
        <mxCell id="5xeOCGfkbPJfZr5TMqTU-38" value="" style="endArrow=none;html=1;rounded=0;entryX=0.5;entryY=1;entryDx=0;entryDy=0;exitX=0.5;exitY=0;exitDx=0;exitDy=0;" parent="1" source="5xeOCGfkbPJfZr5TMqTU-37" target="5xeOCGfkbPJfZr5TMqTU-31" edge="1">
          <mxGeometry width="50" height="50" relative="1" as="geometry">
            <mxPoint x="980" y="720" as="sourcePoint" />
            <mxPoint x="1030" y="670" as="targetPoint" />
          </mxGeometry>
        </mxCell>
        <mxCell id="5xeOCGfkbPJfZr5TMqTU-39" value="Traffic controller" style="rounded=1;whiteSpace=wrap;html=1;" parent="1" vertex="1">
          <mxGeometry x="790" y="720" width="120" height="60" as="geometry" />
        </mxCell>
        <mxCell id="5xeOCGfkbPJfZr5TMqTU-40" value="" style="endArrow=none;html=1;rounded=0;entryX=0.5;entryY=1;entryDx=0;entryDy=0;exitX=0.5;exitY=0;exitDx=0;exitDy=0;" parent="1" source="5xeOCGfkbPJfZr5TMqTU-39" target="5xeOCGfkbPJfZr5TMqTU-37" edge="1">
          <mxGeometry width="50" height="50" relative="1" as="geometry">
            <mxPoint x="980" y="720" as="sourcePoint" />
            <mxPoint x="1030" y="670" as="targetPoint" />
            <Array as="points">
              <mxPoint x="850" y="700" />
              <mxPoint x="990" y="700" />
              <mxPoint x="990" y="800" />
              <mxPoint x="1150" y="800" />
            </Array>
          </mxGeometry>
        </mxCell>
        <mxCell id="5xeOCGfkbPJfZr5TMqTU-41" value="d" style="ellipse;whiteSpace=wrap;html=1;aspect=fixed;" parent="1" vertex="1">
          <mxGeometry x="615.0026270189222" y="620" width="30" height="30" as="geometry" />
        </mxCell>
        <mxCell id="5xeOCGfkbPJfZr5TMqTU-42" value="" style="endArrow=none;html=1;rounded=0;entryX=0;entryY=0.5;entryDx=0;entryDy=0;startArrow=none;exitX=1;exitY=0.5;exitDx=0;exitDy=0;exitPerimeter=0;" parent="1" source="5xeOCGfkbPJfZr5TMqTU-43" target="5xeOCGfkbPJfZr5TMqTU-41" edge="1">
          <mxGeometry width="50" height="50" relative="1" as="geometry">
            <mxPoint x="689.0326270189222" y="790" as="sourcePoint" />
            <mxPoint x="834.0326270189222" y="770" as="targetPoint" />
          </mxGeometry>
        </mxCell>
        <mxCell id="5xeOCGfkbPJfZr5TMqTU-43" value="" style="shape=requiredInterface;html=1;verticalLabelPosition=bottom;sketch=0;rotation=-210;" parent="1" vertex="1">
          <mxGeometry x="545.0026270189223" y="679.48" width="10" height="18.97" as="geometry" />
        </mxCell>
        <mxCell id="5xeOCGfkbPJfZr5TMqTU-44" value="" style="endArrow=none;html=1;rounded=0;entryX=1;entryY=0.5;entryDx=0;entryDy=0;exitX=1;exitY=0.5;exitDx=0;exitDy=0;exitPerimeter=0;" parent="1" source="5xeOCGfkbPJfZr5TMqTU-45" target="5xeOCGfkbPJfZr5TMqTU-41" edge="1">
          <mxGeometry width="50" height="50" relative="1" as="geometry">
            <mxPoint x="904.0326270189222" y="790" as="sourcePoint" />
            <mxPoint x="814.0326270189222" y="750" as="targetPoint" />
          </mxGeometry>
        </mxCell>
        <mxCell id="5xeOCGfkbPJfZr5TMqTU-45" value="" style="shape=requiredInterface;html=1;verticalLabelPosition=bottom;sketch=0;rotation=30;" parent="1" vertex="1">
          <mxGeometry x="730" y="679.48" width="10" height="20" as="geometry" />
        </mxCell>
        <mxCell id="5xeOCGfkbPJfZr5TMqTU-46" value="" style="endArrow=none;html=1;rounded=0;entryX=0.5;entryY=1;entryDx=0;entryDy=0;exitX=0.5;exitY=0;exitDx=0;exitDy=0;" parent="1" source="5xeOCGfkbPJfZr5TMqTU-41" target="5xeOCGfkbPJfZr5TMqTU-24" edge="1">
          <mxGeometry width="50" height="50" relative="1" as="geometry">
            <mxPoint x="630" y="630" as="sourcePoint" />
            <mxPoint x="630" y="570" as="targetPoint" />
          </mxGeometry>
        </mxCell>
        <mxCell id="5xeOCGfkbPJfZr5TMqTU-48" value="" style="endArrow=none;html=1;rounded=0;entryX=1;entryY=0.5;entryDx=0;entryDy=0;entryPerimeter=0;" parent="1" source="5xeOCGfkbPJfZr5TMqTU-39" target="5xeOCGfkbPJfZr5TMqTU-45" edge="1">
          <mxGeometry width="50" height="50" relative="1" as="geometry">
            <mxPoint x="750" y="720" as="sourcePoint" />
            <mxPoint x="740" y="700" as="targetPoint" />
          </mxGeometry>
        </mxCell>
        <mxCell id="5xeOCGfkbPJfZr5TMqTU-49" value="Technician" style="rounded=0;whiteSpace=wrap;html=1;" parent="1" vertex="1">
          <mxGeometry x="425" y="740" width="120" height="60" as="geometry" />
        </mxCell>
        <mxCell id="5xeOCGfkbPJfZr5TMqTU-50" value="" style="endArrow=none;html=1;rounded=0;exitX=0.5;exitY=0;exitDx=0;exitDy=0;entryX=1;entryY=0.5;entryDx=0;entryDy=0;entryPerimeter=0;" parent="1" source="5xeOCGfkbPJfZr5TMqTU-49" target="5xeOCGfkbPJfZr5TMqTU-43" edge="1">
          <mxGeometry width="50" height="50" relative="1" as="geometry">
            <mxPoint x="570" y="700" as="sourcePoint" />
            <mxPoint x="490" y="710" as="targetPoint" />
          </mxGeometry>
        </mxCell>
        <mxCell id="T8v-vANzuegj4dADYEnm-1" value="Add/ Modify&amp;nbsp;" style="rhombus;whiteSpace=wrap;html=1;" parent="1" vertex="1">
          <mxGeometry x="360" y="540" width="80" height="80" as="geometry" />
        </mxCell>
        <mxCell id="T8v-vANzuegj4dADYEnm-2" value="" style="endArrow=none;html=1;rounded=0;entryX=0.75;entryY=1;entryDx=0;entryDy=0;exitX=0;exitY=0.5;exitDx=0;exitDy=0;" parent="1" source="T8v-vANzuegj4dADYEnm-1" target="5xeOCGfkbPJfZr5TMqTU-18" edge="1">
          <mxGeometry width="50" height="50" relative="1" as="geometry">
            <mxPoint x="160" y="640" as="sourcePoint" />
            <mxPoint x="210" y="590" as="targetPoint" />
            <Array as="points">
              <mxPoint x="230" y="580" />
            </Array>
          </mxGeometry>
        </mxCell>
        <mxCell id="T8v-vANzuegj4dADYEnm-3" value="" style="endArrow=none;html=1;rounded=0;entryX=1;entryY=0.5;entryDx=0;entryDy=0;exitX=0;exitY=0.5;exitDx=0;exitDy=0;" parent="1" source="5xeOCGfkbPJfZr5TMqTU-24" target="T8v-vANzuegj4dADYEnm-1" edge="1">
          <mxGeometry width="50" height="50" relative="1" as="geometry">
            <mxPoint x="160" y="640" as="sourcePoint" />
            <mxPoint x="210" y="590" as="targetPoint" />
            <Array as="points">
              <mxPoint x="480" y="520" />
              <mxPoint x="480" y="580" />
            </Array>
          </mxGeometry>
        </mxCell>
        <mxCell id="T8v-vANzuegj4dADYEnm-4" value="Announcement" style="rounded=0;whiteSpace=wrap;html=1;" parent="1" vertex="1">
          <mxGeometry x="10" y="670" width="120" height="60" as="geometry" />
        </mxCell>
        <mxCell id="T8v-vANzuegj4dADYEnm-5" value="" style="endArrow=none;html=1;rounded=0;exitX=1;exitY=0.5;exitDx=0;exitDy=0;entryX=0.5;entryY=1;entryDx=0;entryDy=0;" parent="1" source="T8v-vANzuegj4dADYEnm-4" target="T8v-vANzuegj4dADYEnm-1" edge="1">
          <mxGeometry width="50" height="50" relative="1" as="geometry">
            <mxPoint x="280" y="630" as="sourcePoint" />
            <mxPoint x="330" y="580" as="targetPoint" />
            <Array as="points">
              <mxPoint x="400" y="700" />
            </Array>
          </mxGeometry>
        </mxCell>
        <mxCell id="T8v-vANzuegj4dADYEnm-9" value="Type" style="ellipse;whiteSpace=wrap;html=1;" parent="1" vertex="1">
          <mxGeometry x="10" y="770" width="90" height="60" as="geometry" />
        </mxCell>
        <mxCell id="T8v-vANzuegj4dADYEnm-10" value="Notification" style="ellipse;whiteSpace=wrap;html=1;" parent="1" vertex="1">
          <mxGeometry x="80" y="590" width="90" height="60" as="geometry" />
        </mxCell>
        <mxCell id="T8v-vANzuegj4dADYEnm-11" value="time" style="ellipse;whiteSpace=wrap;html=1;" parent="1" vertex="1">
          <mxGeometry x="-40" y="580" width="80" height="60" as="geometry" />
        </mxCell>
        <mxCell id="T8v-vANzuegj4dADYEnm-13" value="" style="endArrow=none;html=1;rounded=0;entryX=0.5;entryY=0;entryDx=0;entryDy=0;exitX=0.583;exitY=1;exitDx=0;exitDy=0;exitPerimeter=0;" parent="1" source="T8v-vANzuegj4dADYEnm-4" target="T8v-vANzuegj4dADYEnm-9" edge="1">
          <mxGeometry width="50" height="50" relative="1" as="geometry">
            <mxPoint x="70" y="730" as="sourcePoint" />
            <mxPoint x="150" y="650" as="targetPoint" />
          </mxGeometry>
        </mxCell>
        <mxCell id="T8v-vANzuegj4dADYEnm-14" value="" style="endArrow=none;html=1;rounded=0;entryX=0.5;entryY=1;entryDx=0;entryDy=0;exitX=0.667;exitY=0;exitDx=0;exitDy=0;exitPerimeter=0;" parent="1" source="T8v-vANzuegj4dADYEnm-4" target="T8v-vANzuegj4dADYEnm-10" edge="1">
          <mxGeometry width="50" height="50" relative="1" as="geometry">
            <mxPoint x="80" y="730" as="sourcePoint" />
            <mxPoint x="130" y="680" as="targetPoint" />
          </mxGeometry>
        </mxCell>
        <mxCell id="T8v-vANzuegj4dADYEnm-15" value="" style="endArrow=none;html=1;rounded=0;entryX=0.5;entryY=1;entryDx=0;entryDy=0;exitX=0.25;exitY=0;exitDx=0;exitDy=0;" parent="1" source="T8v-vANzuegj4dADYEnm-4" target="T8v-vANzuegj4dADYEnm-11" edge="1">
          <mxGeometry width="50" height="50" relative="1" as="geometry">
            <mxPoint x="80" y="730" as="sourcePoint" />
            <mxPoint x="130" y="680" as="targetPoint" />
          </mxGeometry>
        </mxCell>
        <mxCell id="T8v-vANzuegj4dADYEnm-17" value="See" style="rhombus;whiteSpace=wrap;html=1;" parent="1" vertex="1">
          <mxGeometry x="200" y="890" width="80" height="80" as="geometry" />
        </mxCell>
        <mxCell id="T8v-vANzuegj4dADYEnm-18" value="" style="endArrow=none;html=1;rounded=0;fontFamily=Helvetica;fontSize=12;fontColor=default;exitX=0.5;exitY=0;exitDx=0;exitDy=0;entryX=0.5;entryY=1;entryDx=0;entryDy=0;" parent="1" source="T8v-vANzuegj4dADYEnm-17" target="5xeOCGfkbPJfZr5TMqTU-18" edge="1">
          <mxGeometry width="50" height="50" relative="1" as="geometry">
            <mxPoint x="410" y="890" as="sourcePoint" />
            <mxPoint x="460" y="840" as="targetPoint" />
            <Array as="points">
              <mxPoint x="240" y="790" />
              <mxPoint x="200" y="790" />
            </Array>
          </mxGeometry>
        </mxCell>
        <mxCell id="T8v-vANzuegj4dADYEnm-19" value="" style="endArrow=none;html=1;rounded=0;fontFamily=Helvetica;fontSize=12;fontColor=default;exitX=1;exitY=0.5;exitDx=0;exitDy=0;entryX=0;entryY=0.5;entryDx=0;entryDy=0;" parent="1" source="T8v-vANzuegj4dADYEnm-17" target="5xeOCGfkbPJfZr5TMqTU-31" edge="1">
          <mxGeometry width="50" height="50" relative="1" as="geometry">
            <mxPoint x="410" y="890" as="sourcePoint" />
            <mxPoint x="1090" y="970" as="targetPoint" />
            <Array as="points">
              <mxPoint x="950" y="930" />
              <mxPoint x="950" y="510" />
            </Array>
          </mxGeometry>
        </mxCell>
        <mxCell id="T8v-vANzuegj4dADYEnm-20" value="Flight" style="rounded=0;whiteSpace=wrap;html=1;fontFamily=Helvetica;fontSize=12;fontColor=default;strokeColor=default;fillColor=default;" parent="1" vertex="1">
          <mxGeometry x="450" y="1060" width="120" height="60" as="geometry" />
        </mxCell>
        <mxCell id="T8v-vANzuegj4dADYEnm-21" value="" style="endArrow=none;html=1;rounded=0;fontFamily=Helvetica;fontSize=12;fontColor=default;exitX=0.5;exitY=1;exitDx=0;exitDy=0;entryX=0;entryY=0.75;entryDx=0;entryDy=0;" parent="1" source="T8v-vANzuegj4dADYEnm-17" target="T8v-vANzuegj4dADYEnm-20" edge="1">
          <mxGeometry width="50" height="50" relative="1" as="geometry">
            <mxPoint x="440" y="960" as="sourcePoint" />
            <mxPoint x="490" y="910" as="targetPoint" />
            <Array as="points">
              <mxPoint x="240" y="1105" />
            </Array>
          </mxGeometry>
        </mxCell>
        <mxCell id="T8v-vANzuegj4dADYEnm-28" value="communicate" style="rhombus;whiteSpace=wrap;html=1;fontFamily=Helvetica;fontSize=12;fontColor=default;strokeColor=default;fillColor=default;" parent="1" vertex="1">
          <mxGeometry x="690" y="955" width="100" height="90" as="geometry" />
        </mxCell>
        <mxCell id="T8v-vANzuegj4dADYEnm-29" value="" style="endArrow=none;html=1;rounded=0;fontFamily=Helvetica;fontSize=12;fontColor=default;entryX=0.5;entryY=1;entryDx=0;entryDy=0;exitX=0.5;exitY=0;exitDx=0;exitDy=0;" parent="1" source="T8v-vANzuegj4dADYEnm-28" target="5xeOCGfkbPJfZr5TMqTU-39" edge="1">
          <mxGeometry width="50" height="50" relative="1" as="geometry">
            <mxPoint x="730" y="1020" as="sourcePoint" />
            <mxPoint x="880" y="810" as="targetPoint" />
            <Array as="points">
              <mxPoint x="740" y="850" />
              <mxPoint x="850" y="850" />
            </Array>
          </mxGeometry>
        </mxCell>
        <mxCell id="T8v-vANzuegj4dADYEnm-30" value="" style="endArrow=none;html=1;rounded=0;fontFamily=Helvetica;fontSize=12;fontColor=default;exitX=1;exitY=0.5;exitDx=0;exitDy=0;entryX=0.5;entryY=1;entryDx=0;entryDy=0;" parent="1" source="T8v-vANzuegj4dADYEnm-20" target="T8v-vANzuegj4dADYEnm-28" edge="1">
          <mxGeometry width="50" height="50" relative="1" as="geometry">
            <mxPoint x="660" y="1070" as="sourcePoint" />
            <mxPoint x="710" y="1020" as="targetPoint" />
            <Array as="points">
              <mxPoint x="740" y="1090" />
            </Array>
          </mxGeometry>
        </mxCell>
        <mxCell id="T8v-vANzuegj4dADYEnm-31" value="&lt;u&gt;fid&lt;/u&gt;" style="ellipse;whiteSpace=wrap;html=1;fontFamily=Helvetica;fontSize=12;fontColor=default;strokeColor=default;fillColor=default;" parent="1" vertex="1">
          <mxGeometry x="520" y="980" width="70" height="40" as="geometry" />
        </mxCell>
        <mxCell id="T8v-vANzuegj4dADYEnm-32" value="companyname" style="ellipse;whiteSpace=wrap;html=1;fontFamily=Helvetica;fontSize=12;fontColor=default;strokeColor=default;fillColor=default;" parent="1" vertex="1">
          <mxGeometry x="385" y="980" width="90" height="50" as="geometry" />
        </mxCell>
        <mxCell id="T8v-vANzuegj4dADYEnm-33" value="" style="endArrow=none;html=1;rounded=0;fontFamily=Helvetica;fontSize=12;fontColor=default;entryX=0.5;entryY=1;entryDx=0;entryDy=0;" parent="1" target="T8v-vANzuegj4dADYEnm-31" edge="1">
          <mxGeometry width="50" height="50" relative="1" as="geometry">
            <mxPoint x="520" y="1060" as="sourcePoint" />
            <mxPoint x="560" y="1040" as="targetPoint" />
          </mxGeometry>
        </mxCell>
        <mxCell id="T8v-vANzuegj4dADYEnm-35" value="" style="endArrow=none;html=1;rounded=0;fontFamily=Helvetica;fontSize=12;fontColor=default;entryX=0.5;entryY=1;entryDx=0;entryDy=0;exitX=0.25;exitY=0;exitDx=0;exitDy=0;" parent="1" source="T8v-vANzuegj4dADYEnm-20" target="T8v-vANzuegj4dADYEnm-32" edge="1">
          <mxGeometry width="50" height="50" relative="1" as="geometry">
            <mxPoint x="510" y="1090" as="sourcePoint" />
            <mxPoint x="560" y="1040" as="targetPoint" />
          </mxGeometry>
        </mxCell>
        <mxCell id="IqsqwptslfBjgLYsb2Rc-1" value="type" style="ellipse;whiteSpace=wrap;html=1;rotation=0;" vertex="1" parent="1">
          <mxGeometry x="600" y="320" width="120" height="80" as="geometry" />
        </mxCell>
        <mxCell id="IqsqwptslfBjgLYsb2Rc-2" value="&lt;u&gt;airportid&lt;/u&gt;" style="ellipse;whiteSpace=wrap;html=1;rotation=0;" vertex="1" parent="1">
          <mxGeometry x="1270" y="460" width="90" height="59.88" as="geometry" />
        </mxCell>
        <mxCell id="IqsqwptslfBjgLYsb2Rc-3" value="" style="endArrow=none;html=1;rounded=0;entryX=0;entryY=0.5;entryDx=0;entryDy=0;exitX=1;exitY=0.25;exitDx=0;exitDy=0;" edge="1" parent="1" source="5xeOCGfkbPJfZr5TMqTU-31" target="IqsqwptslfBjgLYsb2Rc-2">
          <mxGeometry width="50" height="50" relative="1" as="geometry">
            <mxPoint x="1190" y="490" as="sourcePoint" />
            <mxPoint x="1257.2509577896303" y="438.9798192390947" as="targetPoint" />
          </mxGeometry>
        </mxCell>
        <mxCell id="IqsqwptslfBjgLYsb2Rc-4" value="Address" style="ellipse;whiteSpace=wrap;html=1;" vertex="1" parent="1">
          <mxGeometry x="150" y="210.00000000000003" width="120" height="80" as="geometry" />
        </mxCell>
        <mxCell id="IqsqwptslfBjgLYsb2Rc-5" value="" style="endArrow=none;html=1;rounded=0;entryX=1;entryY=0.5;entryDx=0;entryDy=0;exitX=-0.008;exitY=0.367;exitDx=0;exitDy=0;exitPerimeter=0;" edge="1" parent="1" source="5xeOCGfkbPJfZr5TMqTU-2" target="IqsqwptslfBjgLYsb2Rc-4">
          <mxGeometry width="50" height="50" relative="1" as="geometry">
            <mxPoint x="330" y="310.90999999999997" as="sourcePoint" />
            <mxPoint x="270" y="269.9999999999999" as="targetPoint" />
          </mxGeometry>
        </mxCell>
        <mxCell id="IqsqwptslfBjgLYsb2Rc-6" value="Remove" style="rhombus;whiteSpace=wrap;html=1;" vertex="1" parent="1">
          <mxGeometry x="360" y="449.09000000000003" width="80" height="80" as="geometry" />
        </mxCell>
        <mxCell id="IqsqwptslfBjgLYsb2Rc-7" value="" style="endArrow=none;html=1;rounded=0;entryX=0;entryY=0.5;entryDx=0;entryDy=0;exitX=1;exitY=0.25;exitDx=0;exitDy=0;" edge="1" parent="1" source="5xeOCGfkbPJfZr5TMqTU-18" target="IqsqwptslfBjgLYsb2Rc-6">
          <mxGeometry width="50" height="50" relative="1" as="geometry">
            <mxPoint x="380" y="690" as="sourcePoint" />
            <mxPoint x="430" y="640" as="targetPoint" />
          </mxGeometry>
        </mxCell>
        <mxCell id="IqsqwptslfBjgLYsb2Rc-8" value="" style="endArrow=none;html=1;rounded=0;entryX=0;entryY=0.25;entryDx=0;entryDy=0;exitX=1;exitY=0.5;exitDx=0;exitDy=0;" edge="1" parent="1" source="IqsqwptslfBjgLYsb2Rc-6" target="5xeOCGfkbPJfZr5TMqTU-24">
          <mxGeometry width="50" height="50" relative="1" as="geometry">
            <mxPoint x="270" y="515.0000000000001" as="sourcePoint" />
            <mxPoint x="370" y="499.09000000000003" as="targetPoint" />
          </mxGeometry>
        </mxCell>
        <mxCell id="IqsqwptslfBjgLYsb2Rc-9" value="type" style="ellipse;whiteSpace=wrap;html=1;rotation=-15;" vertex="1" parent="1">
          <mxGeometry x="920" y="380" width="90" height="60" as="geometry" />
        </mxCell>
        <mxCell id="IqsqwptslfBjgLYsb2Rc-10" value="" style="endArrow=none;html=1;rounded=0;entryX=0;entryY=0;entryDx=0;entryDy=0;exitX=1;exitY=1;exitDx=0;exitDy=0;" edge="1" parent="1" source="IqsqwptslfBjgLYsb2Rc-9" target="5xeOCGfkbPJfZr5TMqTU-31">
          <mxGeometry width="50" height="50" relative="1" as="geometry">
            <mxPoint x="830" y="490" as="sourcePoint" />
            <mxPoint x="880" y="440" as="targetPoint" />
          </mxGeometry>
        </mxCell>
        <mxCell id="IqsqwptslfBjgLYsb2Rc-11" value="type" style="ellipse;whiteSpace=wrap;html=1;rotation=0;" vertex="1" parent="1">
          <mxGeometry x="150" y="300" width="120" height="80" as="geometry" />
        </mxCell>
        <mxCell id="IqsqwptslfBjgLYsb2Rc-12" value="" style="endArrow=none;html=1;rounded=0;entryX=0;entryY=0.75;entryDx=0;entryDy=0;exitX=1;exitY=0.5;exitDx=0;exitDy=0;" edge="1" parent="1" source="IqsqwptslfBjgLYsb2Rc-11" target="5xeOCGfkbPJfZr5TMqTU-2">
          <mxGeometry width="50" height="50" relative="1" as="geometry">
            <mxPoint x="470" y="460" as="sourcePoint" />
            <mxPoint x="520" y="410" as="targetPoint" />
          </mxGeometry>
        </mxCell>
        <mxCell id="IqsqwptslfBjgLYsb2Rc-13" value="contactnumber" style="ellipse;whiteSpace=wrap;html=1;rotation=-30;" vertex="1" parent="1">
          <mxGeometry x="150" y="100" width="120" height="80" as="geometry" />
        </mxCell>
        <mxCell id="IqsqwptslfBjgLYsb2Rc-14" value="" style="endArrow=none;html=1;rounded=0;exitX=0;exitY=0;exitDx=0;exitDy=0;entryX=1;entryY=1;entryDx=0;entryDy=0;" edge="1" parent="1" source="5xeOCGfkbPJfZr5TMqTU-2" target="IqsqwptslfBjgLYsb2Rc-13">
          <mxGeometry width="50" height="50" relative="1" as="geometry">
            <mxPoint x="460" y="250" as="sourcePoint" />
            <mxPoint x="510" y="200" as="targetPoint" />
          </mxGeometry>
        </mxCell>
        <mxCell id="IqsqwptslfBjgLYsb2Rc-15" value="&lt;u&gt;aid&lt;/u&gt;" style="ellipse;whiteSpace=wrap;html=1;" vertex="1" parent="1">
          <mxGeometry x="-120" y="680" width="80" height="60" as="geometry" />
        </mxCell>
        <mxCell id="IqsqwptslfBjgLYsb2Rc-16" value="" style="endArrow=none;html=1;rounded=0;entryX=1;entryY=0.5;entryDx=0;entryDy=0;exitX=0;exitY=0.5;exitDx=0;exitDy=0;" edge="1" parent="1" source="T8v-vANzuegj4dADYEnm-4" target="IqsqwptslfBjgLYsb2Rc-15">
          <mxGeometry width="50" height="50" relative="1" as="geometry">
            <mxPoint x="50" y="680" as="sourcePoint" />
            <mxPoint x="10" y="650" as="targetPoint" />
          </mxGeometry>
        </mxCell>
      </root>
    </mxGraphModel>
  </diagram>
</mxfile>
